<svg xmlns="http://www.w3.org/2000/svg" viewBox="0 0 512 512" width="512" height="512"><g fill="#FFF"><path d="M281.6 34.133h-51.2c-23.526 0-42.667 19.14-42.667 42.667 0 4.71 3.823 8.533 8.533 8.533S204.8 81.51 204.8 76.8c0-14.114 11.486-25.6 25.6-25.6h51.2c14.114 0 25.6 11.486 25.6 25.6 0 4.71 3.823 8.533 8.533 8.533s8.533-3.823 8.533-8.533c.001-23.526-19.14-42.667-42.666-42.667zM469.333 102.4H42.667C19.14 102.4 0 121.54 0 145.067v51.2c0 11.571 6.921 20.89 17.067 24.252v248.815c0 23.526 19.14 42.667 42.667 42.667h392.533c23.526 0 42.667-19.14 42.667-42.667V247.467c0-4.71-3.823-8.533-8.533-8.533s-8.533 3.823-8.533 8.533v221.867c0 14.114-11.486 25.6-25.6 25.6H59.733c-14.114 0-25.6-11.486-25.6-25.6v-256a8.536 8.536 0 0 0-8.533-8.533c-5.265 0-8.533-3.268-8.533-8.533v-51.2c0-14.114 11.486-25.6 25.6-25.6h426.667c14.114 0 25.6 11.486 25.6 25.6v51.2c0 5.18-3.354 8.533-8.533 8.533h-42.667v-34.133c0-9.412-7.654-17.067-17.067-17.067H409.6c-9.412 0-17.067 7.654-17.067 17.067V204.8H119.467v-34.133c0-9.412-7.654-17.067-17.067-17.067H85.333c-9.412 0-17.067 7.654-17.067 17.067V204.8h-8.175a8.53 8.53 0 0 0-8.533 8.533 8.53 8.53 0 0 0 8.533 8.533H76.8a8.536 8.536 0 0 0 8.533-8.533v-42.667H102.4v42.667a8.536 8.536 0 0 0 8.533 8.533h290.133a8.536 8.536 0 0 0 8.533-8.533v-42.667h17.067v42.667a8.536 8.536 0 0 0 8.533 8.533h51.2c14.592 0 25.6-11.008 25.6-25.6v-51.2C512 121.54 492.86 102.4 469.333 102.4z"/><path d="M162.133 85.333a8.536 8.536 0 0 0 8.533-8.533c0-30.703 29.03-59.733 59.733-59.733h51.2c31.266 0 59.733 28.467 59.733 59.733 0 4.71 3.823 8.533 8.533 8.533S358.4 81.51 358.4 76.8c0-40.909-35.891-76.8-76.8-76.8h-51.2c-40.192 0-76.8 36.608-76.8 76.8a8.536 8.536 0 0 0 8.533 8.533zm68.267 358.4h51.2a8.536 8.536 0 0 0 8.533-8.533v-42.667H332.8a8.536 8.536 0 0 0 8.533-8.533v-51.2a8.536 8.536 0 0 0-8.533-8.533h-42.667V281.6a8.536 8.536 0 0 0-8.533-8.533h-51.2a8.536 8.536 0 0 0-8.533 8.533v42.667H179.2a8.536 8.536 0 0 0-8.533 8.533V384a8.536 8.536 0 0 0 8.533 8.533h42.667V435.2a8.536 8.536 0 0 0 8.533 8.533zm-42.667-68.266v-34.133H230.4a8.536 8.536 0 0 0 8.533-8.533v-42.667h34.133V332.8a8.536 8.536 0 0 0 8.533 8.533h42.667v34.133H281.6a8.536 8.536 0 0 0-8.533 8.533v42.667h-34.133V384a8.536 8.536 0 0 0-8.533-8.533h-42.668zm213.334-136.534a8.536 8.536 0 0 0-8.533 8.533V256c0 9.412 7.654 17.067 17.067 17.067h17.067c9.412 0 17.067-7.654 17.067-17.067v-8.533c0-4.71-3.823-8.533-8.533-8.533s-8.533 3.823-8.533 8.533V256H409.6v-8.533c0-4.711-3.823-8.534-8.533-8.534zm-324.267 0a8.536 8.536 0 0 0-8.533 8.533V256c0 9.412 7.654 17.067 17.067 17.067H102.4c9.412 0 17.067-7.654 17.067-17.067v-8.533c0-4.71-3.823-8.533-8.533-8.533s-8.533 3.823-8.533 8.533V256H85.333v-8.533c0-4.711-3.823-8.534-8.533-8.534z"/></g></svg>