<svg xmlns="http://www.w3.org/2000/svg" viewBox="0 0 512 512" width="512" height="512"><g fill="#FFF"><path d="M384 477.867a8.509 8.509 0 0 0 6.033-2.5l51.2-51.2a8.513 8.513 0 0 0 2.5-6.033V76.8a8.53 8.53 0 0 0-8.533-8.533H384c-4.719 0-8.533 3.823-8.533 8.533s3.814 8.533 8.533 8.533h42.667V414.6l-48.7 48.7a8.525 8.525 0 0 0 0 12.066 8.511 8.511 0 0 0 6.033 2.501z"/><path d="M128 85.333c4.719 0 8.533-3.823 8.533-8.533s-3.814-8.533-8.533-8.533H76.8a8.53 8.53 0 0 0-8.533 8.533v366.933c0 18.825 15.309 34.133 34.133 34.133h247.467a8.53 8.53 0 0 0 8.533-8.533v-51.2c0-3.866 3.806-8.533 8.533-8.533h34.133c4.719 0 8.533-3.823 8.533-8.533s-3.814-8.533-8.533-8.533h-34.133c-13.636 0-25.6 11.964-25.6 25.6V460.8H102.4c-9.412 0-17.067-7.654-17.067-17.067v-358.4H128zm128-51.2c-9.412 0-17.067 7.654-17.067 17.067 0 9.412 7.654 17.067 17.067 17.067 9.412 0 17.067-7.654 17.067-17.067 0-9.412-7.655-17.067-17.067-17.067z"/><path d="M435.2 34.133H384a8.53 8.53 0 0 0-8.533 8.533A8.53 8.53 0 0 0 384 51.199h51.2c12.442 0 25.6 13.158 25.6 25.6v392.533c0 12.442-13.158 25.6-25.6 25.6H76.8c-12.442 0-25.6-13.158-25.6-25.6V76.8c0-12.442 13.158-25.6 25.6-25.6H128a8.53 8.53 0 0 0 8.533-8.533A8.53 8.53 0 0 0 128 34.134H76.8c-21.931 0-42.667 20.736-42.667 42.667v392.533C34.133 491.264 54.869 512 76.8 512h358.4c21.931 0 42.667-20.736 42.667-42.667V76.8c0-21.931-20.736-42.667-42.667-42.667z"/><path d="M102.4 281.6a8.53 8.53 0 0 0 8.533 8.533h34.133a8.508 8.508 0 0 0 8.09-5.837l26.044-78.114 60.177 180.514a8.534 8.534 0 0 0 7.885 5.837h.205a8.533 8.533 0 0 0 7.953-5.444l52.753-135.654 16.99 33.98a8.542 8.542 0 0 0 7.637 4.719h27.179C363.512 300.049 372.89 307.2 384 307.2c14.114 0 25.6-11.486 25.6-25.6S398.114 256 384 256c-11.11 0-20.489 7.151-24.021 17.067h-21.905l-23.236-46.481c-1.51-3.021-4.881-4.779-8.03-4.71a8.542 8.542 0 0 0-7.56 5.436L248.082 358.87 187.29 176.503c-1.152-3.49-4.412-5.837-8.09-5.837s-6.929 2.347-8.09 5.837l-32.196 96.563h-27.981a8.532 8.532 0 0 0-8.533 8.534zm281.6-8.533c4.71 0 8.533 3.831 8.533 8.533s-3.823 8.533-8.533 8.533-8.533-3.831-8.533-8.533 3.823-8.533 8.533-8.533zM162.133 102.4h187.733a8.53 8.53 0 0 0 8.533-8.533v-51.2a8.53 8.53 0 0 0-8.533-8.533h-45.594C297.148 13.995 277.854 0 256 0s-41.148 13.995-48.273 34.133h-45.594a8.53 8.53 0 0 0-8.533 8.533v51.2a8.53 8.53 0 0 0 8.533 8.534zm8.534-51.2h43.529a8.525 8.525 0 0 0 8.354-6.835c3.217-15.821 17.28-27.298 33.451-27.298s30.234 11.477 33.451 27.298a8.524 8.524 0 0 0 8.354 6.835h43.529v34.133H170.667V51.2z"/></g></svg>