<svg xmlns="http://www.w3.org/2000/svg" viewBox="0 0 512.003 512.003" width="512" height="512"><path d="M473.311 477.496c.315-7.329 1.012-15.768-4.623-21.47-3.217-3.254-8.089-4.403-11.894-6.811a210.735 210.735 0 0 1-4.519-2.966c.356-1.76-.063-3.687-1.686-5.359-18.619-19.18-23.348-48.923-23.432-74.492-.022-6.546.773-12.65 1.299-19.12.435-5.35-.592-10.325-5.979-12.516-4.468-1.816-9.234-1.772-13.952-1.751-3.169.013-6.118-.775-9.267-1.013-3.586-.272-7.193.184-10.785.07-6.812-.218-13.407-1.351-20.281-1.361-6.88-.011-13.567-1.407-20.444-1.507-9.301-.135-18.701-.14-28.076-.014.76-2.911 1.319-5.864 1.868-8.856.84-4.59 2.334-9.084 3.067-13.693 2.292.215 4.587.486 6.909.655 7.39.536 14.904.291 22.313.303 12.914.022 25.588-4.029 38.465-3.659 5.483.156 10.34.424 15.701 1.351 3.758.651 7.987.158 10.117-3.461 1.288-2.19.932-4.35.962-6.754.029-2.35.469-4.543.698-6.885.402-4.126-.716-8.952-4.173-11.561-2.961-2.235-6.69-2.244-10.242-2.287-5.108-.063-10.352-.384-15.513-.161.394-1.968.125-4.119-.273-6.288-.154-.838-1.014-1.665-1.837-1.837-3.839-.803-7.534-.348-11.412-.243-4.799.13-9.565-.076-14.354.307-8.183.654-16.907-.124-25.294-.042-5.164.051-10.327.14-15.489.075-3.039-.037-6.843-.92-9.838-.15-5.36 1.378-5.301 6.658-4.054 11.072a374.02 374.02 0 0 0-8.989.947c-3.274.388-6.52 1.152-9.832 1.092-2.923-.054-5.622-.992-8.493-1.355-6.127-.776-13.083-.615-19.061 1.075-4.425 1.252-6.53 3.629-6.714 8.328-.125 3.18.213 5.895-.394 9.012-.36 1.846-.834 3.419.039 5.24 2.466 5.145 7.854 2.462 11.935 2.005 3.808-.426 7.729-.087 11.507-.465-.19 1.215-.089 2.482-.262 3.863-.447 3.568-2.09 8.017-3.74 11.165-1.317 2.512-2.37 5.834-4.574 7.647-1.644 1.353-3.168 1.63-4.55 3.068l-.462-.07c-6.618-.991-13.491-.45-20.158-.35-7.819.116-15.642.1-23.461.126-8.186.026-16.266-1.138-24.44-1.11-8.653.029-17.243.432-25.867-.474-3.769-.396-7.522-.898-11.32-.661-3.804.237-7.453 1.215-11.276 1.301-3.542.081-7.175.394-10.712.342-3.723-.053-6.82-1.219-10.599-.621-1.482.235-3.12 1.779-3.591 3.281-1.44-.843-2.827-1.822-3.969-2.888-2.677-2.499-4.182-6.04-6.075-9.118-1.561-2.536-3.792-4.714-4.49-7.612-.69-2.865-.832-5.82-1.662-8.703-.903-3.133-1.979-6.167-2.401-9.411-.36-2.761-.276-5.907-.54-8.945a29.926 29.926 0 0 1 2.169-.212c3.724-.195 6.877-.894 9.896-3.168 2.629-1.98 4.309-4.688 6.31-7.233 2.262-2.88 4.587-4.888 5.159-8.676.631-4.184.152-8.754.155-12.99.004-4.371-.343-8.404-2.14-12.447-3.294-7.411-9.953-14.171-16.899-18.382 1.535-2.825 3.315-5.62 4.699-8.19 2.197-4.078 4.698-8.836 7.771-12.307 2.805-3.166 4.344-7.045 7.35-9.962 3.647-3.539 6.585-7.35 9.529-11.505 12.74-17.98 33.49-32.832 54.777-38.725a4.213 4.213 0 0 0 1.998-1.24c3.104 8.714 6.631 17.395 11.58 25.254 2.245 3.565 4.289 6.584 6.045 10.524 1.885 4.23 3.873 8.126 6.676 11.842 5.763 7.642 8.214 16.343 13.011 24.425 1.508 2.542 4.654 3.197 7.203 1.889 4.008-2.056 7.816-4.463 11.687-6.764 2.82 5.82 4.398 12.173 6.997 18.106 1.432 3.272 3.322 7.702 6.23 10.503-1.698.648-3.357 1.36-4.907 2.255-4.712 2.72-3.704 6.1-2.069 10.394 1.667 4.378 2.909 10.242 8.098 11.785 2.933.873 5.775-.447 8.424-1.573 4.327-1.839 8.76-3.313 13.144-5.01 15.437-5.975 30.173-13.713 45.013-20.847 4.983-2.395 13.646-3.486 16.925-8.48 3.155-4.806.537-13.391-1.948-17.964-2.746-5.052-4.716-11.432-11.741-8.859-2.128.779-4.285 2.14-6.38 3.594-.968-5.102-2.35-9.884-4.257-14.979-1.015-2.711-1.773-5.158-3.794-7.314a36.886 36.886 0 0 1-1.769-2.027c2.459-1.04 4.658-2.495 5.805-4.885 2.241-4.668-.208-10.86-2.208-15.22-1.98-4.316-3.687-8.451-5.951-12.64-3.255-6.017-4.716-12.782-7.32-19.063-5.05-12.185-12.724-23.574-18.833-35.274-3.113-5.961-6.33-11.866-9.447-17.824-3.209-6.135-5.6-12.641-9.19-18.586-2.847-4.715-7.049-8.472-9.727-13.27-2.793-5.005-5.715-10.059-8.286-15.189-1.824-3.638-3.71-8.023-8.073-9.173-3.778-.997-7.666 1.235-10.757 3.151a390.374 390.374 0 0 1-9.27 5.595c-1.52-2.862-3.462-5.542-5.214-8.581-1.679-2.912-3.45-5.791-5.077-8.728-1.083-1.955-1.901-4.33-4.115-5.342-3.869-1.769-7.262 1.94-10.54 3.461-5.708 2.648-12.275 5.183-18.256 7.014-6.201 1.899-11.652 5.864-17.857 7.657-4.496 1.299-6.773 3.193-6.162 8.313.66 5.525 4.414 10.319 7.115 15.018.904 1.573 1.834 3.263 3.091 4.622-2.85.69-5.914.617-8.616 1.78-7.363 3.167-5.089 10.316-2.376 15.939 1.827 3.787 2.697 7.752 5.204 11.223 1.404 1.944 3 3.648 4.463 5.441-.815-.071-1.631-.12-2.407.01-2.66.445-5.042 1.671-7.337 3.034-2.352 1.399-4.877 2.369-7.255 3.707-1.407.792-2.411 1.679-3.355 2.648a30.725 30.725 0 0 0-2.241-2.879c-6.729-7.63-16.629-16.792-26.864-19.009-7.38-1.597-15.063-.649-19.36 5.018-1.821.401-3.664.67-5.491 1.178-5.269 1.465-9.26 4.881-13.041 8.734-6.413 6.535-8.39 15.041-10.549 23.719-1.19 4.785-1.023 9.512-.327 14.369.821 5.736 1.516 12.159 3.794 17.514 1.845 4.338 4.899 7.824 8.067 11.244l.101.113c-4.174 3.672-6.741 9.373-9.451 14.022-2.173 3.727-5.025 6.907-7.132 10.694-2.701 4.853-5.565 9.543-7.839 14.625-4.227 9.447-6.983 19.735-9.734 29.646-1.357 4.887-2.616 9.766-3.892 14.68-1.341 5.166-1.792 10.189-2.72 15.4-.79 4.439-.449 8.829-.668 13.309-.24 4.901-.626 9.645.235 14.509.857 4.847 2.222 9.672 2.984 14.512.284 1.802.116 3.635.595 5.424.686 2.561 2.094 4.817 2.79 7.382 2.611 9.626 6.046 19.312 10.709 28.197 4.444 8.466 6.948 17.198 13.41 24.452 7.429 8.339 14.614 15.969 24.425 21.508 4.811 2.716 9.203 4.188 14.458 5.99 4.44 1.523 8.191 3.376 12.651 3.121a125.014 125.014 0 0 1-2.003 8.401c-3.003 10.842-5.932 21.715-8.958 32.542-1.346 4.814-2.92 10.778-6.7 14.261a91.701 91.701 0 0 1-2.71 2.371c-4.544.656-8.958 3.018-13.259 4.989-7.168 3.285-10.258 6.065-9.429 14.105 1.003 9.707-3.021 19.355-1.718 29.086.409 3.059 1.576 6.126 4.076 8.088 2.561 2.01 4.849 1.334 7.766.945 4.367-.584 8.497.185 12.783.869 4.826.769 9.816.658 14.691.726 10.083.137 19.928.374 29.954 1.166 19.912 1.573 39.895 3.639 59.87 4.266 42.855 1.347 85.958.083 128.838.106 9.815.005 19.707-.391 29.483.589 4.424.443 8.639.955 13.076.339 5.057-.702 9.403-.834 14.477-.178 9.704 1.255 19.833.616 29.623 1.027 10.392.436 20.565.939 30.916-.188 7.284-.793 17.321.857 20.084-8.171 1.314-4.295-.654-8.473.262-12.614.982-4.52.945-8.373 1.146-13.037zM313.323 270.534c2.122-.846 6.72.125 9.048.104 8.228-.077 16.457.196 24.687.13 3.742-.03 7.211 1.298 10.867 1.458 2.298.101 4.41-.986 6.65-1.229 3.486-.379 7.154.016 10.658-.002 3.024-.016 6.133-.437 9.16-.154-.114 1.302-.371 2.58-.515 3.88-14.32 2.09-29.356.644-43.844.702-9.739.04-19.82.522-29.725 1.373.454-2.53 1.003-5.46 3.014-6.262zm-40.527 26.038c-1.614-.279-7.349-1.476-10.477-.847a4.08 4.08 0 0 1 .045-.278c.431-2.134-.173-4.3.111-6.392.333-2.466.658-2.431 3.252-2.918 2.986-.561 6.006-.489 9.033-.481 5.027.013 9.782 1.661 14.812 1.456 5.482-.223 10.879-1.424 16.378-1.689 10.637-.514 21.198-2.102 31.852-2.346 11.776-.271 23.605-.232 35.383-.128 4.839.043 9.135-.81 13.9-1.27 6.004-.579 12.25-.029 18.272.052 5.27.071 7.511.932 6.474 6.991-.312 1.824-.627 3.618-.886 5.45-.432 3.061-1.144 2.458-3.859 1.848-8.716-1.955-18.273-.995-27.027.24-11.619 1.639-23.218 2.571-34.969 2.924-8.168.246-16.044-.295-23.685 1.573-8.072-1.174-16.237-2.622-24.437-2.652-4.473-.017-12.617-1.86-17.019.905-2.346-.976-4.707-2.015-7.153-2.438zm4.661 30.763c4.022-4.711 5.725-10.431 7.383-16.249.167-.586 1.081-5.904.248-5.169 1.041-.918 9.55.179 10.794.183 6.798.018 13.641.956 20.383 1.932-.951 4.59-2.264 9.137-3.078 13.743-.482 2.734-1.689 5.199-2.057 7.563-2.801.066-5.603.131-8.39.226-6.083.209-11.879-1.37-17.968-1.284-3.134.045-6.174.596-9.268.974.702-.557 1.342-1.206 1.953-1.919zm-160.41-83.68c1.32 3.607.934 7.605.909 11.374-.026 4.185.477 7.546-1.926 10.955-1.459 2.072-3.089 4.495-4.864 6.281-2.817 2.834-5.964 2.407-9.61 2.894a49.16 49.16 0 0 0-1.195.176c-.089-.113-.167-.232-.261-.342-.297-.347-.968-.348-1.264 0-.182.214-.345.451-.512.685-4.539.792-9.058 1.585-13.377-.912-5.757-3.329-9.739-10.714-10.418-17.155-.764-7.25 2.628-16.369 7.278-21.85 4.469-5.267 10.396-11.528 17.523-9.537.711.346 1.404.72 2.081 1.097a2.3 2.3 0 0 0 1.708.976c5.607 3.319 11.683 9.225 13.928 15.358zm207.422-31.824c2.714-1.331 5.394-2.936 7.915-4.498.524-.324 3.136-1.81 3.47-2.998.3.735.59 1.63.739 1.901 1.65 2.994 3.295 5.299 3.945 8.777.255 1.367.437 2.979.46 4.455-.655.365-1.293.76-1.903 1.201-3.357 2.021-7.09 3.014-10.617 4.733-2.966 1.444-5.715 3.179-8.603 4.749-3.484 1.895-7.491 2.624-11.128 4.219-7.634 3.347-14.833 7.474-22.619 10.524-3.947 1.546-7.952 2.791-11.973 4.106-2.853.932-6.132 3.16-8.531 1.023-1.483-1.32-2.778-4.034-3.977-5.631-2.559-3.409-.178-3.595 2.666-5.464.973-.638 1.878-1.357 2.765-2.094.407.126.825.231 1.261.291 5.568.764 9.828-4.213 14.428-6.428 6.531-3.146 13.589-4.934 20.138-7.996 6.607-3.089 13.303-6.282 19.76-9.62a8.883 8.883 0 0 0 1.804-1.25zm-6.04-16.019c.678 2.381.852 4.71 1.921 6.93.276.574.899.891 1.077 1.517-2.091 1.299-4.218 2.468-6.315 3.707a6.691 6.691 0 0 0-.649.261c-3.244 1.559-6.37 3.382-9.616 4.95-5.78 2.793-11.696 4.74-17.607 7.155-2.754 1.125-5.632 2.121-8.318 3.393-2.025.958-3.706 2.667-5.715 3.551-1.818.798-2.9 1.743-4.933.244-1.118-.825-1.924-2.935-2.568-4.1-1.397-2.524-2.487-5.178-3.656-7.81-1.972-4.436-4.166-8.626-6.956-12.523 5.902-3.165 12.056-5.79 18.125-8.609 12.094-5.618 23.496-12 36.168-16.156.087 1.33.581 2.494 1.517 3.665 1.511 1.893 2.919 2.96 3.972 5.258 1.272 2.772 2.72 5.64 3.553 8.567zM166.826 26.568c.802-.235 1.626-.851 2.311-1.217 5.285-2.821 10.686-5.702 16.426-7.465 4.715-1.448 8.921-3.89 13.575-5.536 2.003-.708 4.081-1.405 5.968-2.388.684-.356 1.416-.786 2.021-1.265.035-.024.073-.045.108-.069.268.581.509 1.174.72 1.778.497 1.289.921 2.602 1.361 3.912.81 2.413 1.573 4.82 2.694 7.109 1.148 2.345 2.507 4.496 3.981 6.567-6.329 3.298-12.848 6.213-19.884 8.557-5.174 1.724-10.44 3.461-15.411 5.758a2.257 2.257 0 0 0-1.194-.016c-1.926.484-3.762 1.236-5.591 2.007-.663-3.681-2.348-7.899-4.247-11.234-1.232-2.172-1.994-4.255-2.838-6.498zm-.674 30.87c-.099-.17-.189-.344-.286-.515 1.938-.525 4.765-1.685 5.604-2.074.75-.347 1.41-.796 2.039-1.28 6.053-2.186 12.11-4.38 18.277-6.194 10.383-3.054 20.611-6.063 30.142-11.287.54-.296 1.081-.585 1.624-.873 1.172-.1 2.34-.696 3.08-1.6 3.094-1.59 6.176-3.173 9.124-5.09 1.653-1.075 3.286-2.155 5.027-3.085 2.511-1.343 1.273-.546 2.605 2.157 4.314 8.767 8.911 17.386 14.831 25.146 7.031 9.214 10.81 21.175 16.013 31.497 5.477 10.869 10.661 21.841 16.639 32.453 2.874 5.102 5.683 10.006 7.546 15.581 1.794 5.366 3.611 10.773 6.139 15.849a259.491 259.491 0 0 1 5.579 11.96c.54 1.235 1.482 3.151 1.899 4.847-.25.181-.727.573-1.612.67-1.855.205-4.59 1.505-6.359 2.114-12.387 4.26-23.481 11.387-35.096 17.296-6.24 3.174-12.658 6.005-18.828 9.313-4.016 2.152-7.846 4.573-11.84 6.717-2.592-6.242-4.527-12.663-8.745-18.211-2.543-3.346-5.098-6.288-7.052-10.042-1.806-3.467-2.95-7.351-5.021-10.66-4.389-7.012-8.952-14.364-11.559-22.317-2.634-8.034-5.34-16.316-9.591-23.684-4.142-7.178-7.613-14.53-10.915-22.152-1.827-4.219-3.268-8.546-5.043-12.771-1.631-3.882-4.124-6.68-6.817-9.845-2.71-3.185-3.953-6.144-5.526-9.947a48.848 48.848 0 0 0-1.878-3.973zm-37.173 73.466c-1.49-.574-2.814-1.561-4.042-2.642 1.772-1.506 3.269-3.239 4.132-5.266.855-2.01 1.133-4.397 1.017-6.868 3.787.546 7.155.497 10.944-1.154.735-.321 1.47-.674 2.176-1.065a59.755 59.755 0 0 1-.347 5.56c-.453 4.101-.747 9.555-2.498 13.385-1.411-.394-3.066-.509-4.58-.869-2.252-.535-4.719-.279-6.802-1.081zm6.516 8.319c-5.254 4.69-12.571 7.133-19.034 8.956-.472.134-.948.27-1.425.404-.234-1.326-.598-2.717-1.094-4.345-.87-2.85-2.259-5.996-2.564-9.087a16.213 16.213 0 0 0 5.35-1.713c1.444-.751 3.02-1.595 4.564-2.554 2.425 2.829 5.054 6.106 8.551 7.079 1.914.532 3.772.984 5.652 1.26zm-.73-48.138c3.331 3.534 6.038 7.52 7.268 11.925.16.574.297 1.168.422 1.769-.047.063-.099.117-.141.184-2.67 4.153-7.899 6.394-12.662 7.544-.512-2.72-1.402-5.371-2.462-7.589.412-.567.784-1.208 1.201-1.891 1.4-2.288 2.889-4.548 4.176-6.902.784-1.432 1.426-3.28 2.198-5.04zM122.3 80.909c2.533 1.688 5.207 3.611 7.758 5.754-1.011 1.537-1.866 3.198-2.696 4.613-1.123 1.91-3.346 4.398-4.915 6.987-2.105-1.992-4.646-3.445-7.566-3.819-.481-2.073-1.193-4.161-1.422-6.018-.449-3.636-.696-7.305-.857-10.969 3.43.392 6.754 1.49 9.698 3.452zm-6.561 22.819c3.02 1.604 4.38 5.882 5.001 8.929.54 2.649 1.686 5.431.134 7.84-1.224 1.898-3.033 2.01-4.785 3.165-2.206 1.454-3.204 2.988-6.004 3.426-4.469.698-7.908-1.831-10.087-5.671-.782-1.379-1.366-3.193-1.68-5.145 2.658-1.335 2.54-5.222.034-6.366.271-1.42.733-2.752 1.432-3.87 4.988 1.101 11.048-4.914 15.955-2.308zm-9.965 39.109c.962 2.588 2.076 4.975 3.061 7.415-2.604.621-5.235 1.103-7.87 1.249-5.319.297-7.702-2.156-11.139-5.864-.061-.067-.128-.132-.191-.2 4.289-2.765 7.008-9.21 9.284-13.903 1.682 1.317 3.563 2.34 5.565 2.984-.607 2.646.297 5.645 1.29 8.319zM92.741 81.396c1.074-.729 2.181-1.3 3.308-1.826.547.325 1.284.406 1.89.149a30.589 30.589 0 0 1 9.915-2.378c-.616 5.04-1.939 12.367-.832 17.842-2.938.704-5.957 1.84-8.189 3.359-2.637-4.556-9.052-9.374-11.589-12.319-.022-.073-.061-.135-.088-.205 1.804-1.753 3.733-3.363 5.585-4.622zM78.057 104.01c1.148-3.983 1.444-8.285 3.811-11.796.29-.43.607-.863.933-1.298 1.274 2.217 3.376 4.136 4.987 5.872 2.169 2.339 4.177 5.52 6.672 7.7-1.229 1.737-2.103 3.795-2.624 5.993-5.273 1.832-10.039 5.864-15.663 6.386-.248-4.447.581-8.341 1.884-12.857zm-1.194 18.184c4.049.465 9.997-1.481 14.665-3.258.024.15.03.305.057.453a19.745 19.745 0 0 0 2.424 6.51c-2.122 2.446-3.476 5.621-4.989 8.428-.54 1.003-2.204 4.846-3.724 6.771-1.603-1.623-3.121-3.319-4.251-5.246-2.242-3.819-3.394-9.039-4.182-13.658zm23.321 247.312c-7.805-4.741-14.186-10.129-20.176-17.085-2.703-3.138-5.394-5.971-7.28-9.69-1.907-3.762-3.261-7.771-5.087-11.572-4.064-8.464-7.824-16.84-10.95-25.688-2.66-7.532-4.373-15.436-5.826-23.307-1.618-8.763-1.556-16.861-1.641-25.736-.084-8.835 2.152-18.025 4.041-26.657 1.993-9.108 5.075-17.769 7.533-26.739 2.725-9.945 7.485-20.262 13.395-28.747 4.076-5.851 6.832-12.6 10.906-18.445 1.353 1.413 2.796 2.72 4.455 3.727 8.881 5.391 21.715 1.472 30.864-1.229 9.716-2.87 18.018-7.196 24.748-15.032 6.442-7.501 7.263-18.266 7.239-27.838-.017-6.723-.682-13.277-3.121-19.241 1.972-.46 4.162-.585 5.94-1.163 2.747-.893 5.039-2.45 7.605-3.695 2.562-1.243 5.654-1.239 8.15-2.286 2.995 7.813 6.345 15.411 9.887 23.015 3.035 6.513 6.836 12.464 9.887 18.899a4.805 4.805 0 0 0-2.025.721c-10.839 2.021-20.286 8.421-29.54 14.152-10.682 6.616-20.315 14.854-27.854 24.944-3.523 4.715-6.777 9.187-11.01 13.286-1.704 1.65-2.906 3.309-4.063 5.344-1.363 2.399-2.921 3.953-4.574 6.147-4.431 5.885-8.679 13.774-10.231 21.636-1.721-.779-3.492-1.393-5.241-1.604-1.613-.195-3.703-.226-5.159.637-1.135.674-1.534 2.217-2.619 2.805-.87.471-1.314 1.384-1.343 2.309-6.719 3.305-12.824 10.422-15.681 16.146-7.117 14.265-6.529 30.87 5.981 41.977 4.992 4.433 11.456 5.903 18.005 5.391.019-.001.036-.005.055-.006-.401 4.099-.108 8.389.376 11.498.719 4.614 2.294 9.002 2.765 13.661.347 3.426.598 5.739 2.472 8.714 4.162 6.605 7.261 13.824 13.656 18.61 2.078 1.554 4.793 3.303 7.536 4.091.922 6.691 2.879 13.208 2.288 20.087-.459 5.343-1.035 10.844-1.822 16.317-7.561-1.884-16.036-4.402-22.541-8.354zm-2.447 85.445a2.65 2.65 0 0 0 1.184-.522c.065-.051.134-.097.2-.147 1.944-.941 3.796-1.949 5.638-2.978 2.163-.944 4.289-1.931 5.991-3.711 3.067-3.207 4.715-7.621 6.396-11.645 4.539-10.86 7.276-22.692 10.614-33.972 3.396-11.475 4.451-23.17 6.292-34.946.841-5.379.952-10.246.048-15.647-.727-4.341-1.987-8.702-2.091-13.1 1.507.386 3.024.804 4.45.891 2.631.159 5.288.122 7.924.151 7.05.077 13.867-1.613 20.917-.985 14.505 1.293 29.016.664 43.498 2.055 14.325 1.375 29.034.42 43.411.339 6.315-.035 12.397 1.499 18.633 1.502 6.94.002 13.403-1.899 20.415-.91 13.215 1.863 27.127.906 40.51.774 7.184-.071 14.442-.728 21.615-.052 6.465.609 12.603 1.268 19.124 1.275 6.519.007 12.819 1.426 19.355 1.325 6.363-.099 12.456.846 18.801.847.118 0 3.155.114 5.301.39l-.047.76c-.627.946-.617 3.39-.822 4.567-1.091 6.272-.537 12.811-.537 19.154 0 7.457 1.249 14.756 2.07 22.16.773 6.963 2.102 13.715 4.226 20.399 3.367 10.591 8.633 21.721 15.624 30.834-.477 1.278-.438 2.758.413 4.174 3.586 5.973 8.899 10.14 14.872 13.592-.704.134-1.417.286-2.152.481-5.568 1.477-11.554-.605-17.304-.09-5.497.494-10.496-.338-15.886-.183-6.079.176-11.698.638-17.777-.007-5.842-.619-12.006.155-17.868.336-6.517.201-13.067.158-19.588.116-5.893-.04-11.637-1.316-17.562-1.292-7.031.028-14.058.079-21.09.016-27.584-.249-55.169-.225-82.752-.449-5.878-.048-11.578-.702-17.415-1.218-7.08-.626-14.034-.262-21.115-1.189-11.606-1.519-23.727.048-35.386.368-6.742.185-13.141-1.454-19.821-1.861-6.86-.418-13.758-.1-20.621-.436-6.919-.339-13.585-1.531-20.57-1.446-2.466.03-4.891.143-7.291.355.055-.026.123-.053.173-.075zm97.815 41.096c-.049-.116-.082-.237-.147-.35.088.169.149.283.189.353l-.042-.003zm264.307-10.74c-.696 3.314-1.442 5.61-1.092 9.075.091.908.081 2.262.19 3.433a11.45 11.45 0 0 1-.796-.131c-3.558-.717-7.935.616-11.493.945-3.676.339-7.4.372-11.133.276-.102-.551-.215-1.077-.309-1.549-.453-2.271-.418-4.721-1.145-6.915-.769-2.323-1.813-3.997-1.981-6.576-.241-3.685-5.241-3.567-5.643 0-.286 2.545-1.16 4.628-.527 7.225.457 1.877.262 3.567.443 5.494.051.55.159 1.216.32 1.93-2.324-.129-4.641-.26-6.94-.351-4.03-.163-8.109-.141-12.189-.152.184-1.727-.247-3.607-.602-5.352-.301-1.484-.466-3.024-.885-4.479-.404-1.408-1.438-2.866-1.594-4.314-.39-3.644-5.597-3.789-5.784 0-.152 3.103 0 6.245.317 9.347.159 1.565.394 3.19.902 4.678-2.37-.083-4.729-.221-7.067-.467-3.216-.337-6.363-1.042-9.615-.947-1.955.058-3.87.376-5.785.685-.229-.98-.491-1.962-.622-2.972-.447-3.428-1.422-6.634-2.7-9.844-.94-2.36-4.487-2.806-5.259 0-.561 2.04-.471 3.922-.298 6.013.171 2.066-.02 4.176.3 6.218.063.398.148.784.247 1.162-6.667-.249-13.272-.941-19.956-1.152-.213-.995-.483-1.957-.674-2.773-.673-2.878-.704-6.43-2.001-9.108-.589-1.999-3.704-2.716-5.041-.608-2.009 3.169-2.293 8.285-1.219 12.429-8.838.004-17.676.01-26.514.013-.151-3.683-.404-7.457-1.107-10.952-.506-2.515-4.416-2.417-4.988 0-.735 3.116-2.043 7.215-2.033 10.957l-19.191.01c-.211-.981-.315-2.001-.42-3.039-.229-2.27-.144-4.589-1.009-6.737-.732-1.821-3.787-2.942-4.812-.63-1.193 2.689-2.32 6.818-2.135 10.41l-23.721.013c-.899-4.09-2.777-8.212-4.929-11.377-1.028-1.511-3.356-1.319-3.911.512-.813 2.683-.961 7.022-.063 10.871l-10.233.005c-3.691.001-7.381.035-11.072.067-.006-.419-.016-.837-.022-1.254-.055-3.48-1.236-6.431-2.573-9.59-1.377-3.252-6.047-1.286-6.177 1.673-.095 2.163.272 4.3.291 6.46.008.93-.034 1.849-.037 2.768-1.877.007-3.752.011-5.628.001-4.791-.023-9.557-.327-14.323-.652a23.138 23.138 0 0 0-.392-.891c-.261-.442-.613-.794-1.009-1.103-.03-.055-.047-.089-.091-.165-.001.018-.161-.888-.22-1.194-.219-1.145-.182-2.833-.368-4.41-.271-2.288-1.402-3.929-2.482-5.897-1.453-2.647-5.3-1.299-5.432 1.471-.087 1.81.723 3.31.463 5.116-.221 1.535-.474 3.013-.371 4.568.043.655.149 1.293.29 1.913a165.426 165.426 0 0 0-5.594-.194c-3.742-.057-7.489-.299-11.24-.622a3.308 3.308 0 0 0-.181-1.064 8.699 8.699 0 0 0-.471-1.156 22.067 22.067 0 0 0-.207-.26 5.124 5.124 0 0 0-.049-.569c-.059-1.081.014-2.164-.064-3.244-.207-2.872-.95-5.435-3.374-7.167-2.523-1.802-5.931 1.738-4.245 4.245.049.073.084.119.114.152-.01.052-.014.129-.002.279.022.294-.039 1.224-.039 1.231-.138 1.444-.408 2.859-.438 4.315a9.792 9.792 0 0 0 .255 2.379c-7.132-.76-14.265-1.556-21.38-1.761a1.534 1.534 0 0 0-.131-.141 3.605 3.605 0 0 0-.067-.143c.309.621-.268-.799-.317-.977-.312-1.15-.438-2.305-.602-3.487-.302-2.187-.451-4.396-1.109-6.51-.775-2.487-4.184-2.423-4.988 0-.909 2.742-1.494 6.01-1.282 9.108.046.674.142 1.432.299 2.21-5.866.291-12.038.841-18.129.952-.11-.172-.225-.341-.323-.524-.775-1.441-.896-2.939-1.091-4.538-.189-1.547-.522-2.867-.126-4.38.417-1.59.622-2.315.317-4.02-.516-2.88-4.954-2.11-4.988.675-.004.341-1.243 1.559-1.442 1.962-.509 1.039-.658 2.193-.766 3.334-.2 2.133-.229 4.433.153 6.542.046.249.1.501.166.754a63.857 63.857 0 0 1-2.797-.244c-4.339-.504-8.46-1.069-12.858-.687-1.312.114-2.63.5-3.928.608-1.317.329-.921.221 1.188-.323a29.275 29.275 0 0 1-.09-4.471c.066-5.082.732-10.107.998-15.173.12-2.287.152-4.543-.065-6.826-.107-1.13-1.099-3.922-.702-4.933.064-.163.16-.324.279-.484 5.284 1.206 10.457 1.425 15.954 1.524 6.348.114 12.445.881 18.745 1.472 5.377.503 10.891.028 16.285-.071 6.708-.124 12.984.335 19.649 1.011 12.237 1.243 24.717-.927 36.996-.722 6.065.101 11.971 1.43 18.06 1.454 6.676.026 13.156.807 19.802 1.184 27.572 1.565 55.581.051 83.189-.2 13.479-.123 26.984-.699 40.374.781 12.245 1.354 24.967.254 37.301.851 6.646.323 13.046 1.781 19.762 1.988 6.258.194 12.1 2.482 18.484 2.695 6.071.202 12.061 2.53 18.116 2.01 3.001-.258 5.473-1.109 8.501-.885a21.94 21.94 0 0 0 2.503.057c-.102.951-.208 1.839-.252 2.573-.182 3.031.308 6.363-.303 9.273z" fill="#FFF"/><path d="M201.56 70.27c-.279 1.583-2.606 2.576-3.459 3.971-1.182 1.933-1.301 4.268-2.419 6.238-1.905 3.354-5.22 6.723-3.982 10.885.698 2.344 4.014 2.878 5.27.69 1.896-3.304 4.379-6.974 5.628-10.574.856-2.463.892-4.164 2.569-6.186 1.122-1.353 1.595-2.537 1.75-4.298.267-3.034-4.823-3.758-5.357-.726zm7.54 10.922c-.956 2.528-3.14 4.448-4.703 6.595a183.677 183.677 0 0 0-4.324 6.164c-1.603 2.405-3.462 9.732 1.472 10.095 1.602.118 2.51-.981 3.096-2.317.433-.989.496-2.041.923-3.033.578-1.342 1.743-2.515 2.523-3.747 2.614-4.13 5.16-8.212 5.722-13.12.329-2.874-3.827-2.971-4.709-.637zm7.062 10.726c-2.098-1.412-4.734 1.914-2.735 3.544.558.455-4.153 5.121-4.696 6.014-1.578 2.594-2.092 5.789-3.84 8.245-.755 1.06.042 2.582 1.18 2.901 5.305 1.49 6.732-6.179 8.869-9.265 2.433-3.518 5.998-8.228 1.222-11.439zm4.302 15.768c-2.568-2.137-5.804 1.089-3.658 3.656 1.052 1.259-.108 3.936-.451 5.284-.246.968-.46 2.02-.319 3.021.025.182.162.68.243.912-.774.845-.249 2.104.746 2.465.282.117.572.207.871.271a2.069 2.069 0 0 0 2.283-.929c.165-.249.302-.512.422-.785l.338-.267a7.02 7.02 0 0 0 .983-1.653c.584-1.357.831-2.861 1.012-4.324.35-2.794-.214-5.774-2.47-7.651zm20.439 29.511c-.32-3.804-6.173-3.917-6.018 0 .181 4.603-9.088 11.198-3.004 15.292.846.569 2.188.356 2.878-.372 1.619-1.709 2.734-4.513 3.693-6.653 1.176-2.623 2.7-5.304 2.451-8.267zm-2.097 11.294c-1.081 4.637-6.214 11.121-3.335 15.9.503.837 1.517.859 2.215.285 1.889-1.554 3.06-4.467 4.026-6.672 1.131-2.584 2.074-5.225 2.489-8.025.515-3.46-4.556-5.079-5.395-1.488zm-91.929 264.087l-.981.193c-.964.189-1.691 1.076-1.967 1.967-.794 2.574-3.132 5.683-4.468 8.071-1.493 2.666-2.935 5.277-4.182 8.071-1.375 3.08-3.641 6.388-1.802 9.734.888 1.617 3.101 2.128 4.662 1.223.468-.272.84-.611 1.21-1.005.465-.496.787-1.293.631-1.997-.161-.064-.413-.4-.277-.805.005.007.01.013.014.021l-.012-.031a.901.901 0 0 1 .105-.211c.294-.432.455-1.148.664-1.638.909-2.127 1.644-4.332 2.64-6.419 1.833-3.841 4.569-7.931 5.849-12.065 2.654-1.381 1.163-5.747-2.086-5.109z" fill="#FFF"/><path d="M139.717 438.049c.075.184.147.37.221.554.029.073.024.154.041.231.159.062.218-.142-.262-.785zm16.325-19.082c-1.966-.228-3.068 2.689-1.63 3.934 1.107.958-1.274 2.796-2.097 3.727-.976 1.103-1.887 2.194-2.707 3.429-2.202 3.325-4.857 7.646-3.563 11.742.698 2.211 3.995 2.925 5.178.678 1.33-2.528 2.22-5.247 3.61-7.754 1.111-2.003 2.557-3.727 3.772-5.654 2.34-3.708 3.056-9.449-2.563-10.102zm7.838 8.599c-1.781.497-1.979 2.95-.811 3.937a5.692 5.692 0 0 1-.169.415c-.791 1.688-1.897 3.255-2.824 4.871-1.29 2.252-3.734 5.76-2.21 8.396.441.763 1.475 1.229 2.336.951 3.632-1.174 5.955-6.553 7.247-10.23 1.108-3.144 2-9.892-3.569-8.34zm16.236 4.382c-2.118-.017-3.242 2.645-2.058 4.146-.061.254-.129.539-.152.607-.349 1.041-.874 2.029-1.299 3.042-.886 2.115-1.666 4.058-1.665 6.394.001 2.938 3.794 3.739 5.314 1.441 1.514-2.289 3.158-5.35 3.704-8.532.518-3.024.11-7.067-3.844-7.098zm12.357 7.379c-.072-3.509-5.382-3.515-5.454 0-.053 2.533-1.369 9.79 2.726 9.79 4.088-.001 2.78-7.265 2.728-9.79zm66.774-5.565c-.479 1.964-1.919 3.463-2.719 5.3-.902 2.068-1.39 4.38-1.207 6.635.256 3.179 5.275 4.406 5.972.809.396-2.045.622-4.124 1.393-6.076.689-1.743 1.677-3.293 2.003-5.167.61-3.514-4.567-5.087-5.442-1.501zm13.554.877c-1.839-.119-2.831 2.27-1.905 3.611-.189.46-.506 1.261-.628 1.597a124.367 124.367 0 0 1-2.021 5.145c-.952 2.285-2.998 6.528-1.229 8.846.782 1.023 2.204 1.736 3.441.902 3.207-2.161 4.604-7.358 5.615-10.879 1.086-3.788.936-8.95-3.273-9.222zM111.043 250.037c-.16-7.373-6.542-15.842-14.378-11.306a.847.847 0 0 0-.808-.324c-6.731.882-9.816 8.123-10.393 14.198-.311 3.274-.277 7.286 1.972 9.934 2.659 3.132 8.014 3.977 11.888 3.781 3.594-.182 7.71-1.6 9.923-4.586 2.354-3.176 1.875-7.968 1.796-11.697zm-5.969 5.885c-.196 3.646-2.819 4.964-6.112 5.332-2.548.284-7.003.065-8.634-2.377-1.074-1.607-.927-4.852-.816-6.748.236-4.013 1.692-9.522 5.689-11.224a1.91 1.91 0 0 0 .899 1.458c4.12 2.619 8.002 1.308 8.622 7.675.183 1.891.453 3.99.352 5.884zm172.467-141.594c-.106-1.196-1.895-1.617-2.216-.3-.767 3.134.094 6.232.562 9.361.85 5.675-5.013 7.17-9.03 4.582-2.821-1.818-4.993-3.692-6.997-6.392-5.577-7.51-10.284-15.728-14.301-24.149-2.494-5.23-6.154-11.015-6.457-16.959-.196-3.855 1.361-6.139 6.569-2.614 1.473.997 2.7 2.876 3.839 4.231 3.523 4.195 6.488 8.783 10.276 12.757 1.235 1.296 3.184-.661 1.962-1.961-3.683-3.919-16.831-27.586-24.842-18.122-5.115 6.044 2.299 17.895 4.992 23.518 5.708 11.926 12.532 26.932 24.442 33.817 4.209 2.433 9.437 3.722 12.481-1.215 3.223-5.226-.806-11.221-1.28-16.554zm25.127 76.221c-.617.109-.826 1.013-.373 1.414 1.873 1.66 1.562 3.874 1.068 6.162-.261 1.204-1.176 5.718-3.133 5.465-2.617-.339-1.879-9.314-2.265-11.321-.209-1.087-1.951-1.065-2.176 0-.948 4.474-1.7 18.952 6.98 14.79 3.281-1.574 4.871-6.058 4.933-9.472.047-2.853-1.236-7.711-5.034-7.038z" fill="#FFF"/></svg>