<svg xmlns="http://www.w3.org/2000/svg" viewBox="0 0 60 60" width="512" height="512"><g fill="#FFF"><path d="M46.5 31c-4.072 0-7.436 3.06-7.931 7H27.5v-6.125a4.038 4.038 0 0 0 2.506-1.873l12.92-21.851c.756-1.275.769-2.806.035-4.094S40.904 2 39.421 2h-2.272A3.495 3.495 0 0 0 34 0c-1.596 0-5.5 1.227-5.5 3.5S32.404 7 34 7c1.758 0 3.204-1.308 3.449-3h1.971a2.05 2.05 0 0 1 1.802 1.048 2.052 2.052 0 0 1-.018 2.085l-12.92 21.851C27.907 29.62 27.24 30 26.5 30s-1.407-.38-1.791-1.026L11.428 7.132a2.05 2.05 0 0 1-.018-2.084A2.053 2.053 0 0 1 13.212 4h2.338c.246 1.692 1.692 3 3.45 3 1.596 0 5.5-1.227 5.5-3.5S20.596 0 19 0a3.495 3.495 0 0 0-3.149 2h-2.639c-1.483 0-2.806.77-3.54 2.058s-.721 2.818.041 4.103l13.282 21.842a4.032 4.032 0 0 0 2.505 1.872V38h-9c-6.065 0-11 4.935-11 11s4.935 11 11 11 11-4.935 11-11v-9h11.069c.495 3.94 3.859 7 7.931 7 4.411 0 8-3.589 8-8s-3.589-8-8-8zM34 5c-1.234 0-3.358-.989-3.498-1.5C30.642 2.989 32.766 2 34 2c.827 0 1.5.673 1.5 1.5S34.827 5 34 5zM19 2c1.234 0 3.358.989 3.498 1.5C22.358 4.011 20.234 5 19 5c-.827 0-1.5-.673-1.5-1.5S18.173 2 19 2zm6.5 47c0 4.963-4.038 9-9 9s-9-4.037-9-9 4.038-9 9-9h9v9zm21-4c-3.309 0-6-2.691-6-6s2.691-6 6-6 6 2.691 6 6-2.691 6-6 6z"/><path d="M46.5 35c-2.206 0-4 1.794-4 4s1.794 4 4 4 4-1.794 4-4-1.794-4-4-4zm0 6c-1.103 0-2-.897-2-2s.897-2 2-2 2 .897 2 2-.897 2-2 2z"/></g></svg>