<svg xmlns="http://www.w3.org/2000/svg" viewBox="0 0 512.011 512.011" width="512" height="512"><g fill="#FFF"><path d="M110.939 170.668h290.133a8.536 8.536 0 0 0 8.533-8.533V76.801c0-46.652-26.795-76.8-68.267-76.8H179.206c-43.785 0-76.8 33.016-76.8 76.8v85.333c0 4.711 3.823 8.534 8.533 8.534zm8.533-93.867c0-34.611 25.122-59.733 59.733-59.733h162.133c37.752 0 51.2 30.857 51.2 59.733v76.8H119.472v-76.8z"/><path d="M366.939 85.335h-68.267c-.299 0-.555.145-.845.171-3.9-19.533-21.163-34.304-41.822-34.304-20.659 0-37.922 14.771-41.822 34.304-.29-.026-.546-.171-.845-.171h-68.267a8.536 8.536 0 0 0-8.533 8.533 8.536 8.536 0 0 0 8.533 8.533h68.267c.299 0 .555-.145.845-.171 3.9 19.533 21.163 34.304 41.822 34.304 20.659 0 37.922-14.771 41.822-34.304.29.026.546.171.845.171h68.267a8.536 8.536 0 0 0 8.533-8.533 8.536 8.536 0 0 0-8.533-8.533zm-110.933 34.133c-14.114 0-25.6-11.486-25.6-25.6s11.486-25.6 25.6-25.6 25.6 11.486 25.6 25.6-11.486 25.6-25.6 25.6zM120.991 255.02c4.378 18.611 18.91 76.877 34.048 99.584 10.974 16.452 36.668 54.997 100.966 54.997s89.993-38.545 100.966-54.997c15.138-22.707 29.67-80.973 34.048-99.584 10.718-3.055 18.586-12.937 18.586-24.619v-34.133a8.536 8.536 0 0 0-8.533-8.533 8.536 8.536 0 0 0-8.533 8.533v34.133c0 4.702-3.831 8.533-8.533 8.533a8.528 8.528 0 0 0-8.328 6.682c-.085.401-4.804 21.376-11.563 44.621-.179-.009-.333-.102-.512-.102-.631 0-63.753-.188-104.422-16.461a8.678 8.678 0 0 0-6.349 0c-40.602 16.247-103.663 16.461-104.294 16.461-.222 0-.41.111-.631.128-6.767-23.253-11.486-44.245-11.571-44.646a8.529 8.529 0 0 0-8.329-6.682c-4.702 0-8.533-3.831-8.533-8.533v-34.133a8.536 8.536 0 0 0-8.533-8.533 8.536 8.536 0 0 0-8.533 8.533v34.133c-.002 11.681 7.865 21.563 18.583 24.618zm135.015 35.729c37.282 13.918 87.509 16.06 102.912 16.384-5.001 15.292-10.615 29.696-16.145 37.999-10.257 15.386-31.599 47.403-86.767 47.403-55.168 0-76.51-32.017-86.767-47.403-5.53-8.294-11.145-22.699-16.137-37.99 15.232-.325 65.528-2.441 102.904-16.393z"/><path d="M511.571 500.771l-8.533-25.6c-10.436-31.275-37.7-48.307-151.151-48.503-6.98-3.482-32.333-16.171-32.333-16.171a8.566 8.566 0 0 0-9.37 1.161l-54.178 46.438-54.178-46.438a8.55 8.55 0 0 0-9.37-1.161l-32.333 16.179c-7.791.009-15.138.111-22.135.282-.486-.085-.93-.29-1.451-.29-.683 0-1.28.239-1.92.384-92.134 2.637-116.036 19.345-125.645 48.12l-8.533 25.6c-1.493 4.471.93 9.301 5.402 10.795 4.48 1.502 9.301-.93 10.795-5.402l8.533-25.6c4.668-13.978 10.923-32.597 102.835-36.198v.58c-14.677 3.814-25.6 17.067-25.6 32.922 0 18.825 15.309 34.133 34.133 34.133s34.133-15.309 34.133-34.133c0-15.855-10.923-29.107-25.6-32.922v-1.041a899.275 899.275 0 0 1 16.99-.162h.077a8.546 8.546 0 0 0 3.814-.896l29.073-14.549 52.446 44.962v30.208c0 4.71 3.823 8.533 8.533 8.533s8.533-3.823 8.533-8.533V473.26l52.446-44.962c21.291 10.641 29.047 14.447 32.888 15.181v.256c124.681 0 131.78 21.291 136.969 36.83l8.533 25.6a8.542 8.542 0 0 0 10.795 5.402c4.471-1.494 6.895-6.324 5.402-10.796zm-357.965-22.903c0 9.412-7.654 17.067-17.067 17.067-9.412 0-17.067-7.654-17.067-17.067s7.654-17.067 17.067-17.067c9.412 0 17.067 7.655 17.067 17.067zm128-256c-4.71 0-8.533 3.823-8.533 8.533s3.823 8.533 8.533 8.533h8.533c0 4.71 3.823 8.533 8.533 8.533s8.533-3.823 8.533-8.533h8.533c4.71 0 8.533-3.823 8.533-8.533s-3.823-8.533-8.533-8.533h-34.132zm-85.334 0c-4.71 0-8.533 3.823-8.533 8.533s3.823 8.533 8.533 8.533h8.533a8.536 8.536 0 0 0 8.533 8.533 8.536 8.536 0 0 0 8.533-8.533h8.533c4.71 0 8.533-3.823 8.533-8.533s-3.823-8.533-8.533-8.533h-34.132z"/></g></svg>