<svg xmlns="http://www.w3.org/2000/svg" viewBox="0 0 512 512" width="512" height="512"><path d="M509.013 76.396L435.604 2.987c-3.983-3.983-10.441-3.983-14.425 0l-22.464 22.464c-3.983 3.983-3.983 10.441 0 14.425l29.493 29.493-44.945 44.945-29.292-29.292c-3.983-3.983-10.441-3.983-14.425 0L95.652 328.916c-3.983 3.983-3.983 10.441 0 14.425l29.292 29.292L2.987 494.589c-3.983 3.983-3.983 10.441 0 14.425 1.992 1.99 4.602 2.986 7.212 2.986s5.221-.995 7.212-2.987l121.956-121.956 29.292 29.292c1.992 1.992 4.602 2.987 7.212 2.987s5.221-.995 7.212-2.987L426.98 172.453c3.983-3.983 3.983-10.441 0-14.425l-29.292-29.292 44.945-44.945 29.493 29.493a10.166 10.166 0 0 0 7.212 2.987c2.61 0 5.221-.995 7.212-2.987l22.464-22.464c3.981-3.982 3.981-10.44-.001-14.424zM175.872 394.713l-58.584-58.584 107.737-107.737h117.168L175.872 394.713zm229.472-229.472l-42.752 42.752H245.423l101.336-101.336 58.585 58.584zm73.993-73.592l-58.985-58.985 8.04-8.04 58.985 58.985-8.04 8.04z" fill="#FFF"/><path d="M256.205 284.727c-3.983-3.983-10.441-3.983-14.425 0l-44.249 44.249c-3.982 3.983-3.982 10.441.001 14.425 1.992 1.992 4.602 2.987 7.212 2.987s5.221-.995 7.212-2.987l44.249-44.249c3.983-3.983 3.983-10.441 0-14.425zm-66.942 66.941c-3.984-3.983-10.441-3.983-14.424.001l-3.404 3.404c-3.983 3.984-3.982 10.441.001 14.425 1.992 1.991 4.601 2.986 7.211 2.986s5.221-.996 7.213-2.988l3.403-3.403c3.984-3.984 3.983-10.442 0-14.425z" fill="#FFF"/></svg>